<?xml version="1.0" encoding="utf-8"?>
<!-- Generator: Adobe Illustrator 26.2.1, SVG Export Plug-In . SVG Version: 6.00 Build 0)  -->
<svg version="1.1" id="Layer_1" xmlns="http://www.w3.org/2000/svg" xmlns:xlink="http://www.w3.org/1999/xlink" x="0px" y="0px"
	 viewBox="0 0 592.54 63.26" style="enable-background:new 0 0 592.54 63.26;" xml:space="preserve">
<style type="text/css">
	.st0{display:none;}
	.st1{font-family:'Futura-CondensedExtraBold';}
	.st2{font-size:60.4824px;}
	.st3{letter-spacing:-3;}
</style>
<text transform="matrix(1 0 0 1 -5.4365 49.8804)" class="st0 st1 st2 st3">Pratt Community College</text>
<g>
	<path d="M12.31,49.88H0V4.28h11.93c5.95,0,10.36,1.21,13.23,3.63c3.39,2.85,5.08,6.82,5.08,11.9c0,5.53-1.8,9.66-5.4,12.37
		c-2.46,1.83-6,2.75-10.6,2.75h-1.92V49.88z M12.31,24.69l0.56,0.03c1.5,0,2.69-0.46,3.57-1.37c0.89-0.92,1.33-2.17,1.33-3.77
		c0-1.57-0.43-2.85-1.3-3.84c-0.87-1-1.97-1.51-3.31-1.51h-0.86V24.69z"/>
	<path d="M42.12,49.88H30.28V17.96h11.84l-0.62,6.23c1.79-4.67,4.75-7,8.89-7v13.29c-1.3-0.71-2.4-1.06-3.31-1.06
		c-1.59,0-2.82,0.58-3.68,1.73s-1.28,2.83-1.28,5.04V49.88z"/>
	<path d="M79.09,49.88H67.22c0.1-1.06,0.18-2.08,0.24-3.04c0.06-0.96,0.12-1.74,0.18-2.33c-2.05,4.02-4.79,6.02-8.24,6.02
		c-2.99,0-5.37-1.5-7.12-4.49c-1.73-2.97-2.6-7.09-2.6-12.34c0-5.08,0.9-9.08,2.69-11.99c1.79-2.95,4.23-4.43,7.32-4.43
		c3.17,0,5.73,1.91,7.68,5.73c-0.04-0.39-0.07-0.74-0.09-1.03s-0.04-0.54-0.06-0.74l-0.12-1.86l-0.09-1.42h12.08V49.88z M67.1,33.52
		c0-1.18-0.04-2.19-0.13-3.01c-0.09-0.83-0.23-1.5-0.43-2.02s-0.45-0.9-0.77-1.12c-0.32-0.23-0.7-0.34-1.15-0.34
		c-2.01,0-3.01,2.67-3.01,8c0,3.82,0.9,5.73,2.69,5.73C66.16,40.75,67.1,38.34,67.1,33.52z"/>
	<path d="M95.03,49.88H83.16V27.49h-3.37v-9.54h3.37V8.56h11.87v9.39h3.93v9.54h-3.93V49.88z"/>
	<path d="M113.03,49.88h-11.87V27.49h-3.37v-9.54h3.37V8.56h11.87v9.39h3.93v9.54h-3.93V49.88z"/>
	<path d="M158.37,35.85l-0.71,13.17c-2.74,1.1-5.19,1.65-7.35,1.65c-5.1,0-9.39-1.87-12.88-5.61c-3.9-4.19-5.85-10.13-5.85-17.81
		c0-7.19,1.83-12.95,5.49-17.31c3.66-4.33,8.55-6.5,14.68-6.5c1.99,0,4.02,0.37,6.08,1.12V17.6c-1.83-1.83-3.71-2.75-5.64-2.75
		c-2.52,0-4.49,1.07-5.91,3.22c-1.42,2.17-2.13,5.16-2.13,8.98c0,1.85,0.18,3.5,0.53,4.96c0.35,1.46,0.86,2.69,1.52,3.69
		c0.66,1,1.47,1.77,2.44,2.3c0.96,0.53,2.07,0.8,3.31,0.8C154.09,38.81,156.22,37.82,158.37,35.85z"/>
	<path d="M187.9,34.41c0,4.92-1.36,8.84-4.08,11.75c-2.72,2.91-6.36,4.37-10.93,4.37c-4.49,0-8.06-1.49-10.72-4.46
		c-2.64-2.99-3.96-7.01-3.96-12.05c0-5.04,1.35-9.09,4.05-12.14c2.68-3.07,6.23-4.61,10.66-4.61c4.67,0,8.33,1.53,10.99,4.58
		C186.57,24.91,187.9,29.09,187.9,34.41z M176.41,34.02c0-1.18-0.08-2.25-0.24-3.2c-0.16-0.96-0.38-1.77-0.68-2.45
		c-0.3-0.68-0.65-1.21-1.06-1.58c-0.41-0.37-0.88-0.56-1.39-0.56c-1,0-1.81,0.71-2.42,2.13c-0.61,1.24-0.92,3.1-0.92,5.58
		c0,2.44,0.3,4.3,0.92,5.58c0.61,1.42,1.43,2.13,2.45,2.13c0.96,0,1.76-0.7,2.39-2.1C176.1,37.99,176.41,36.15,176.41,34.02z"/>
	<path d="M233.69,49.88h-11.84V31.81c0-2.03-0.6-3.04-1.8-3.04c-1.79,0-2.69,1.65-2.69,4.96v16.15h-11.84V32.25
		c0-2.17-0.67-3.25-2.01-3.25c-0.96,0-1.65,0.37-2.05,1.11c-0.4,0.74-0.61,2.03-0.61,3.88v15.89h-11.84V17.96h11.84v1.65
		c0,1.3-0.06,2.52-0.18,3.66c2.11-4,4.85-6,8.24-6c3.8,0,6.62,2.21,8.45,6.62c1.59-4.41,4.23-6.62,7.91-6.62
		c2.78,0,4.94,1.01,6.5,3.04c1.28,1.69,1.92,4.24,1.92,7.65V49.88z"/>
	<path d="M280.65,49.88H268.8V31.81c0-2.03-0.6-3.04-1.8-3.04c-1.79,0-2.69,1.65-2.69,4.96v16.15h-11.84V32.25
		c0-2.17-0.67-3.25-2.01-3.25c-0.96,0-1.65,0.37-2.05,1.11c-0.4,0.74-0.61,2.03-0.61,3.88v15.89h-11.84V17.96h11.84v1.65
		c0,1.3-0.06,2.52-0.18,3.66c2.11-4,4.85-6,8.24-6c3.8,0,6.62,2.21,8.45,6.62c1.59-4.41,4.23-6.62,7.91-6.62
		c2.78,0,4.94,1.01,6.5,3.04c1.28,1.69,1.92,4.24,1.92,7.65V49.88z"/>
	<path d="M282.68,17.96h11.84v17.98c0,1.71,0.17,2.96,0.5,3.75c0.35,0.65,1.02,0.97,2.01,0.97c0.96,0,1.61-0.32,1.95-0.97
		c0.35-0.65,0.53-1.9,0.53-3.75V17.96h11.84v19.58c0,1.3-0.1,2.48-0.31,3.53c-0.21,1.05-0.53,2.01-0.97,2.86
		c-0.44,0.86-1.01,1.64-1.71,2.35c-0.7,0.71-1.53,1.36-2.49,1.95c-2.6,1.54-5.54,2.3-8.83,2.3c-3.33,0-6.27-0.77-8.83-2.3
		c-0.98-0.59-1.83-1.24-2.52-1.93c-0.7-0.7-1.27-1.48-1.71-2.35c-0.44-0.87-0.77-1.83-0.97-2.88c-0.21-1.05-0.31-2.23-0.31-3.53
		V17.96z"/>
	<path d="M341.65,49.88H329.8V32.99c0-1.46-0.14-2.47-0.43-3.04c-0.29-0.57-0.78-0.86-1.49-0.86c-1.65,0-2.48,1.57-2.48,4.7v16.1
		h-11.84V17.96h11.84c-0.02,0.79-0.04,1.52-0.06,2.19c-0.02,0.67-0.05,1.29-0.09,1.86l-0.12,2.04c1.91-4.51,4.71-6.76,8.39-6.76
		c2.56,0,4.55,0.96,5.97,2.86c1.44,1.91,2.16,4.57,2.16,7.97V49.88z"/>
	<path d="M356.73,8.06c0,1.87-0.68,3.48-2.04,4.84c-1.4,1.34-3.02,2.01-4.87,2.01c-1.91,0-3.54-0.68-4.9-2.04
		c-1.34-1.4-2.01-3.03-2.01-4.9c0-1.91,0.67-3.53,2.01-4.87c1.4-1.34,3.02-2.01,4.87-2.01c1.95,0,3.59,0.68,4.93,2.04
		C356.06,4.47,356.73,6.11,356.73,8.06z M355.72,49.88h-11.87V17.96h11.87V49.88z"/>
	<path d="M371.51,49.88h-11.87V27.49h-3.37v-9.54h3.37V8.56h11.87v9.39h3.93v9.54h-3.93V49.88z"/>
	<path d="M390.32,63.26h-12.2l5.17-14.71l-9.48-30.6h11.9l2.27,9.15c0.31,1.26,0.6,2.63,0.84,4.12c0.25,1.49,0.46,3.1,0.63,4.83
		l0.41-2.92c0.55-3.72,1.05-6.48,1.51-8.27l1.77-6.91H405L390.32,63.26z"/>
	<path d="M445.97,35.85l-0.71,13.17c-2.74,1.1-5.19,1.65-7.35,1.65c-5.1,0-9.39-1.87-12.88-5.61c-3.9-4.19-5.85-10.13-5.85-17.81
		c0-7.19,1.83-12.95,5.49-17.31c3.66-4.33,8.55-6.5,14.68-6.5c1.99,0,4.02,0.37,6.08,1.12V17.6c-1.83-1.83-3.71-2.75-5.64-2.75
		c-2.52,0-4.49,1.07-5.91,3.22c-1.42,2.17-2.13,5.16-2.13,8.98c0,1.85,0.18,3.5,0.53,4.96c0.35,1.46,0.86,2.69,1.52,3.69
		c0.66,1,1.47,1.77,2.44,2.3s2.07,0.8,3.31,0.8C441.69,38.81,443.82,37.82,445.97,35.85z"/>
	<path d="M475.5,34.41c0,4.92-1.36,8.84-4.08,11.75c-2.72,2.91-6.36,4.37-10.93,4.37c-4.49,0-8.06-1.49-10.72-4.46
		c-2.64-2.99-3.96-7.01-3.96-12.05c0-5.04,1.35-9.09,4.05-12.14c2.68-3.07,6.23-4.61,10.66-4.61c4.67,0,8.33,1.53,10.99,4.58
		C474.17,24.91,475.5,29.09,475.5,34.41z M464.01,34.02c0-1.18-0.08-2.25-0.24-3.2s-0.38-1.77-0.68-2.45
		c-0.3-0.68-0.65-1.21-1.06-1.58s-0.88-0.56-1.39-0.56c-1,0-1.81,0.71-2.42,2.13c-0.61,1.24-0.92,3.1-0.92,5.58
		c0,2.44,0.3,4.3,0.92,5.58c0.61,1.42,1.43,2.13,2.45,2.13c0.96,0,1.76-0.7,2.39-2.1C463.69,37.99,464.01,36.15,464.01,34.02z"/>
	<path d="M488.52,49.88h-11.84V0h11.84V49.88z"/>
	<path d="M502.64,49.88h-11.84V0h11.84V49.88z"/>
	<path d="M520.98,39.07l11.58,0.24c-0.83,3.72-2.44,6.52-4.83,8.4c-2.39,1.88-5.52,2.82-9.38,2.82c-4.57,0-8.15-1.42-10.75-4.25
		c-2.58-2.87-3.87-6.8-3.87-11.78c0-5.06,1.39-9.18,4.16-12.37c2.78-3.21,6.36-4.81,10.75-4.81c4.37,0,7.86,1.55,10.45,4.64
		c2.6,3.11,3.9,7.24,3.9,12.37l-0.06,2.1h-17.37c0.14,3.27,1.06,4.9,2.78,4.9C519.69,41.32,520.57,40.57,520.98,39.07z
		 M521.25,30.03c0-0.59-0.07-1.13-0.21-1.62c-0.14-0.49-0.33-0.92-0.58-1.27c-0.25-0.35-0.54-0.64-0.87-0.84
		c-0.33-0.21-0.7-0.31-1.09-0.31c-0.83,0-1.5,0.38-2.01,1.14c-0.51,0.76-0.77,1.73-0.77,2.91H521.25z"/>
	<path d="M562.15,17.96V50.8c0,2.5-0.35,4.67-1.03,6.5c-0.69,1.69-1.81,3.14-3.37,4.34c-2.62,2.03-5.95,3.04-9.98,3.04
		c-4.35,0-7.69-0.94-10.01-2.81c-2.32-1.87-3.76-4.78-4.31-8.74h12.11c0.08,1.73,0.91,2.6,2.48,2.6c1,0,1.71-0.35,2.13-1.05
		c0.41-0.7,0.62-1.86,0.62-3.47v-5.05c-2.11,2.76-4.59,4.13-7.44,4.13c-3.09,0-5.59-1.51-7.5-4.52c-1.89-3.01-2.83-6.97-2.83-11.87
		c0-4.88,0.94-8.88,2.83-11.99c1.91-3.09,4.38-4.64,7.41-4.64c1.4,0,2.62,0.35,3.66,1.06c1.08,0.73,2.25,2,3.51,3.81l-0.24-4.19
		H562.15z M550.67,33.81c0-4.61-0.85-6.91-2.54-6.91c-1.91,0-2.86,2.24-2.86,6.73c0,4.63,0.92,6.94,2.78,6.94
		C549.79,40.58,550.67,38.32,550.67,33.81z"/>
	<path d="M580.52,39.07l11.58,0.24c-0.83,3.72-2.44,6.52-4.83,8.4s-5.52,2.82-9.38,2.82c-4.57,0-8.15-1.42-10.75-4.25
		c-2.58-2.87-3.87-6.8-3.87-11.78c0-5.06,1.39-9.18,4.16-12.37c2.78-3.21,6.36-4.81,10.75-4.81c4.37,0,7.86,1.55,10.45,4.64
		c2.6,3.11,3.9,7.24,3.9,12.37l-0.06,2.1h-17.37c0.14,3.27,1.06,4.9,2.78,4.9C579.23,41.32,580.11,40.57,580.52,39.07z
		 M580.79,30.03c0-0.59-0.07-1.13-0.21-1.62c-0.14-0.49-0.33-0.92-0.58-1.27c-0.25-0.35-0.54-0.64-0.87-0.84
		c-0.33-0.21-0.7-0.31-1.09-0.31c-0.83,0-1.5,0.38-2.01,1.14c-0.51,0.76-0.77,1.73-0.77,2.91H580.79z"/>
</g>
</svg>
